<?xml version="1.0" encoding="utf-8"?>
<!-- Generator: Adobe Illustrator 19.2.1, SVG Export Plug-In . SVG Version: 6.00 Build 0)  -->
<svg version="1.1" id="Warstwa_1" xmlns="http://www.w3.org/2000/svg" xmlns:xlink="http://www.w3.org/1999/xlink" x="0px" y="0px"
	 viewBox="0 0 3725.2 1051.2" style="enable-background:new 0 0 3725.2 1051.2;" xml:space="preserve">
<g>
	<path d="M616.5,1042.9c-0.2-1.1-0.6-2.4-0.6-3.6c0-17.3,0-34.6,0-51.8c0-0.9,0.2-1.9,0.5-2.8c0.2-0.5,0.7-1.2,1.2-1.3
		c2.8-0.8,5.5-1.5,8.3-2.2c77.5-17,146.1-51.8,206-103.7c1.9-1.7,3.9-3.3,5.7-5.1c0.6-0.6,0.9-1.6,1.4-2.4c-0.6-0.9-1-1.8-1.7-2.4
		c-1.7-1.9-3.6-3.7-5.4-5.5C743.4,773.3,654.7,684.6,566,595.9c-2.5-2.5-5.1-4.8-7.7-7.2c-0.2-0.2-0.7-0.3-0.8-0.2
		c-0.5,0.3-1.1,0.7-1.3,1.2c-0.3,0.9-0.3,1.9-0.3,2.8c0,3.2,0,6.4,0,9.6c0,140.8,0,281.6,0,422.4c0,7.7-0.2,15.4-0.3,23
		c0,1.6-1.5,3-3,3.2c-1.3,0.2-2.5,0.4-3.8,0.4c-15.4,0-30.7,0-46.1-0.1c-1.3,0-2.6-0.2-3.8-0.5c-0.9-0.3-1.8-0.8-1.9-1.9
		c-0.2-1.3-0.4-2.5-0.4-3.8c-0.1-7.7-0.2-15.4-0.2-23c0-261.1,0-522.2,0-783.3c0-3.5-0.2-7-0.3-10.5c0-0.2-0.4-0.4-0.6-0.5
		c-0.3,0-0.7,0-0.9,0.2c-1.3,1.1-1.6,2.7-2,4.3c-6.2,20.2-12.5,40.3-18.7,60.5c-37.6,121.9-75.2,243.8-112.9,365.7
		c-9.8,31.8-19.6,63.5-29.4,95.3c-0.8,2.7-1.7,5.4-2.8,8c-1.9-0.9-2.3-2.5-2.8-4c-2.5-8.2-5.1-16.5-7.6-24.7
		c-10.2-33-20.4-66-30.6-99c-28.9-93.5-57.8-186.9-86.6-280.4c-11.5-37.3-23-74.5-34.5-111.8c-0.7-2.4-1.7-4.8-2.6-7.4
		c-1.1,0.5-2.2,0.6-2.7,1.3c-1.5,1.6-2.9,3.4-4.3,5.2c-43.1,56.2-72.4,118.8-87.1,188.2c-3.6,16.9-6.1,34-7.9,51.2
		c-2.7,27.1-2.9,54.3-0.9,81.5C64,600.9,72,639.4,84.8,676.8C131.6,813.8,241,922,377,967.6c16.1,5.4,32.3,10.1,48.9,13.5
		c2.5,0.5,5,1.2,7.5,1.8c1.1,0.3,2.2,1.6,2.3,2.8c0.1,0.6,0.2,1.3,0.2,1.9c0,17.3,0,34.6,0,51.8c0,0.9-0.2,1.9-0.6,2.8
		c-0.2,0.5-0.9,1-1.4,1.1c-0.9,0.1-1.9,0-2.8-0.2C240.4,1008.2,89.7,872.2,29.5,699.6c-10.2-29.4-17.8-59.4-22.8-90.1
		C2.1,580.3-0.2,551,0,521.6c0.1-16.3,1.1-32.6,2.7-48.9c2.6-26.2,7.1-51.9,13.6-77.4c18.5-72.3,51.1-137.7,97.4-196.2
		c20.5-25.9,43.3-49.7,68.3-71.3c2.6-2.3,5.1-4.8,8.1-6.5c1.5,0.5,2.2,1.5,2.6,2.7c2.6,8.2,5.1,16.5,7.7,24.7
		c41.2,133.5,82.3,267,123.5,400.5c0.9,3,1.2,6.3,3.4,8.9c0.2,0.2,0.5,0.4,0.8,0.4c0.2,0,0.6,0,0.7-0.2c0.9-2.4,1.9-4.7,2.7-7.1
		c7.7-24.7,15.3-49.5,23-74.2c39.3-127.4,78.6-254.8,117.9-382.2c8.7-28.1,17.4-56.2,26.1-84.3c0.9-2.7,1.7-5.5,2.8-8.1
		c0.5-1.2,1.5-2,2.9-2.2c1-0.1,1.9-0.3,2.9-0.3c13.4,0,26.9,0,40.3,0.1c1.3,0,2.6,0.1,3.8,0.3c2.8,0.3,4.1,1.5,4.3,4.1
		c0.1,1.9,0.2,3.8,0.3,5.8c0,3.2,0,6.4,0,9.6c0,139.8,0,279.7,0,419.5c0,3.5,0.2,7,0.4,10.5c0,0.4,0.8,0.8,1.3,1.2
		c0.2,0.1,0.6,0,0.9-0.2c0.8-0.5,1.6-1.1,2.3-1.7c1.8-1.8,3.6-3.6,5.5-5.4c86.2-86.2,172.4-172.4,258.6-258.6c2.5-2.5,4.9-5,7.3-7.6
		c0.9-0.9,0.8-2.6-0.1-3.5c-2.4-2.1-4.7-4.3-7.2-6.3c-56.3-46.8-120-78.9-191.2-95.8c-5.6-1.3-11.3-2-16.9-4.3
		c-0.2-1.2-0.6-2.5-0.6-3.7c0-17.3,0-34.6,0-51.8c0-0.9,0.2-1.9,0.5-2.8c0.2-0.5,0.9-1.1,1.3-1.1c3.5,0.4,7,0.7,10.4,1.4
		c49.8,10,97.3,26.7,142.3,50.3c126.8,66.8,220.9,182.1,260.9,319.9c6.4,22.1,11.1,44.6,14.6,67.4c5.7,36.9,7.3,73.9,4.8,111
		c-7.3,110.5-45.2,209.5-114.4,296C873.9,932.4,795.2,988,701,1021.7c-26.2,9.4-53.1,16.4-80.5,21.4c-0.9,0.2-1.9,0.1-2.8,0.1
		C617.3,1043.2,617,1043,616.5,1042.9z M881.2,826c2.9-0.7,4-3.1,5.6-5c29.6-36.1,53.3-75.8,70.9-119c13.8-33.9,23.5-68.9,29-105.1
		c2.5-16.8,4.4-33.6,5-50.6c0.7-19.8,0.6-39.6-1.2-59.4c-1.9-21.4-5-42.5-9.7-63.5c-16.5-73.4-49.1-138.9-97.2-196.7
		c-1.2-1.5-2.5-2.9-3.7-4.4c-3.5-3.9-4-4-7.5-0.6c-1.4,1.3-2.7,2.7-4.1,4.1c-4.3,4.3-8.6,8.6-12.9,12.9
		C765,329.1,674.6,419.5,584.1,510c-1.8,1.8-3.6,3.6-5.4,5.4c-4.3,4.4-4.3,4.4,0.3,9.1c1.8,1.8,3.6,3.6,5.4,5.4
		c96.3,96.3,192.7,192.7,289,289c1.8,1.8,3.6,3.6,5.5,5.4C879.6,825,880.5,825.5,881.2,826z"/>
	<path d="M3152.5,366.7c2.7,2.3,4,5.2,5.7,7.9c23.6,38.1,47.1,76.2,70.7,114.2c16.3,26.4,32.6,52.8,49,79.2c1.5,2.4,3.1,4.8,4.8,7.1
		c0.2,0.3,1.1,0.3,1.6,0.3c0.2,0,0.5-0.4,0.5-0.7c0.2-0.9,0.5-1.9,0.5-2.8c0.1-3.2,0.1-6.4,0.1-9.6c0-60.5,0-120.9,0-181.4
		c0-3.5,0-7,0.2-10.6c0.1-1.2,0.7-2.4,1.1-3.6c1.8-0.1,3.4-0.4,5-0.4c17.3,0,34.6,0,51.8,0c1.6,0,3.2,0.2,4.7,0.5
		c0.5,0.1,1.1,0.8,1.2,1.3c0.3,0.9,0.4,1.9,0.5,2.8c0.1,2.9,0.1,5.8,0.1,8.6c0,101.7,0,203.5,0,305.2c0,3.5-0.2,7-0.3,10.5
		c0,1.2-1.3,2.4-2.5,2.5c-1.6,0.1-3.2,0.2-4.8,0.2c-16.6,0-33.3,0-49.9,0c-1.3,0-2.6,0-3.8-0.1c-1.4,0-2.5-0.7-3.2-1.8
		c-1.7-2.4-3.2-4.8-4.8-7.2c-37.1-58.3-74.2-116.5-111.3-174.8c-6.7-10.5-13.4-21.1-20.1-31.6c-0.8-1.3-2-2.4-3.1-3.6
		c-0.1-0.1-0.6,0-0.8,0.1c-0.3,0.1-0.6,0.3-0.7,0.5c-0.2,0.6-0.4,1.2-0.4,1.9c-0.1,3.2-0.1,6.4-0.1,9.6c0,64.6,0,129.3,0,193.9
		c0,3.5-0.2,7-0.3,10.5c0,1.1-1.3,2.3-2.6,2.4c-1.3,0.1-2.5,0.2-3.8,0.2c-17,0-33.9,0-50.9,0c-1.3,0-2.6-0.1-3.8-0.2
		c-1.2-0.1-2.3-1.2-2.5-2.5c-0.1-1-0.3-1.9-0.3-2.9c-0.1-2.6,0-5.1,0-7.7c0-101.7,0-203.5,0-305.2c0-3.5,0.2-7,0.3-10.5
		c0.1-1.3,1.2-2.4,2.4-2.5c1.3-0.1,2.5-0.2,3.8-0.2c20.5,0,41,0,61.4,0C3149.5,366.4,3151.1,366.6,3152.5,366.7z"/>
	<path d="M3668.6,696.9c-1.4-5.7-1.2-11.8-1.6-17.8c-0.2-3.2-0.5-6.4-0.8-9.5c0-0.2-0.4-0.4-0.7-0.5c-0.3-0.1-0.7-0.2-0.8-0.1
		c-0.9,0.9-1.9,1.7-2.7,2.7c-8,10.8-18.4,18.6-30.4,24.4c-13.1,6.3-26.9,10.1-41.2,12c-9.5,1.2-19.1,1.9-28.7,1.5
		c-22.8-0.9-44.1-6.6-63.8-18.5c-14.6-8.9-27.5-19.8-38.5-32.9c-16.4-19.7-27.5-42.2-34.6-66.8c-6.4-22.3-8.8-45.1-8.1-68.3
		c0.6-20,3.9-39.4,9.8-58.5c5.8-18.5,14.3-35.6,26.1-51c20.8-27.2,48.2-44.6,81.2-52.8c20.6-5.1,41.6-6.3,62.9-4.4
		c19,1.7,37.2,6.3,54.5,14c15.3,6.9,29.1,16,40.9,28.1c16.3,16.7,26.9,36.4,31,59.5c0.5,2.8,0.5,5.7,0.6,8.6c0,0.5-0.6,1.1-1.1,1.4
		c-0.5,0.3-1.2,0.5-1.8,0.5c-0.9,0.1-1.9,0.2-2.9,0.2c-19.2,0-38.4,0-57.6,0c-1.6,0-3.1-0.4-4.8-0.6c-0.7-2-1.5-3.7-2-5.6
		c-3.3-12.5-10.6-22.5-20.3-30.7c-10.2-8.7-22.2-13.9-35.1-16.9c-16-3.7-31.8-2.6-47.3,2.4c-18.7,6-32.9,18-43.7,34.2
		c-7.7,11.6-12.4,24.5-15.4,38c-4.7,20.8-5.5,41.9-3.6,63c1.5,16,5.3,31.5,12.2,46.2c6.9,14.7,16.4,27.4,29.5,37.2
		c9.4,7,19.7,11.9,31.2,14.1c5,0.9,10.2,1.5,15.3,1.6c28.8,0.6,52.4-9.9,69.9-33.1c8.3-11,12.8-23.5,14.1-37.2c0.1-0.9,0-1.9,0-2.9
		c0-1.3-1.1-2.5-2.3-2.6c-2.9-0.1-5.7-0.3-8.6-0.3c-17.3,0-34.6,0-51.8,0c-2.6,0-5.1-0.1-7.7-0.2c-1.1-0.1-2.3-1.4-2.5-2.5
		c-0.1-0.6-0.3-1.3-0.3-1.9c0-15.4,0-30.7,0-46.1c0-0.9,0.2-1.9,0.6-2.8c0.2-0.5,0.8-1.1,1.3-1.2c0.9-0.3,1.9-0.4,2.8-0.4
		c3.5-0.1,7-0.1,10.6-0.1c36.8,0,73.6,0,110.4,0c3.2,0,6.4,0.1,9.6,0.2c1.2,0,2.3,1.2,2.4,2.5c0.1,1,0.3,1.9,0.3,2.9
		c0,2.2,0,4.5,0,6.7c0,51.2,0,102.4,0,153.6c0,3.2-0.2,6.4-0.3,9.6c-0.1,1.3-1.2,2.4-2.5,2.5c-1.3,0.1-2.5,0.2-3.8,0.2
		c-14.7,0-29.4,0-44.2,0C3672.5,698.1,3670.6,698.4,3668.6,696.9z"/>
	<path d="M1199.9,531.8c0-50.2,0-100.5,0-150.7c0-2.2,0-4.5,0-6.7c0.1-7.9,0.1-8,8-8c41,0,81.9-0.1,122.9,0.1
		c20,0.1,39.4,3.6,58.1,10.8c31.8,12.2,55.8,33.2,72.1,63c9.7,17.5,15.7,36.3,18.7,56.1c2.8,18.8,2.8,37.7,1.3,56.5
		c-1.9,22.4-7.2,44.1-16.8,64.7c-7.2,15.5-16.5,29.6-28.7,41.6c-21.4,21.2-47,33.8-76.9,37.7c-7.3,0.9-14.6,1.4-22,1.4
		c-41.9,0-83.8,0-125.7,0c-11.5,0-10.9,1.1-10.9-10.9C1199.9,635.5,1199.9,583.6,1199.9,531.8z M1267,532.3c0,32,0,63.9,0,95.9
		c0,2.9,0,5.8,0.1,8.6c0,0.9,0.1,2,0.5,2.8c0.4,0.8,1.2,1.7,1.9,1.9c1.5,0.4,3.1,0.5,4.7,0.5c16.9,0,33.9,0.2,50.8-0.1
		c8.9-0.1,17.9-0.8,26.6-3c20.4-5,35.7-16.5,45.4-35.3c4.4-8.6,7.5-17.6,9.6-27c2.7-11.6,4-23.3,4.4-35.1
		c0.6-16.6,0.4-33.2-2.4-49.7c-1.7-10.5-4.4-20.6-9.3-30.1c-7.3-14.2-18.3-24.5-33.1-30.4c-3.8-1.5-7.8-2.8-11.8-3.8
		c-10-2.5-20.1-3.8-30.4-3.8c-16.6,0-33.2,0-49.9,0c-1,0-1.9,0-2.9,0.1c-2.9,0.1-4.1,1.3-4.2,4c-0.1,2.9-0.1,5.8-0.1,8.6
		C1267,468.3,1267,500.3,1267,532.3z"/>
	<path d="M1674,698.1c-37.4,0-74.9,0-112.3,0c-2.6,0-5.1,0-7.7,0c-4.7-0.1-5.2-0.7-5.4-5.8c0-2.2,0-4.5,0-6.7
		c0-102.4,0-204.8,0-307.2c0-2.9,0-5.8,0.1-8.6c0.1-2.1,1.4-3.3,3.7-3.4c2.9-0.1,5.8-0.1,8.6-0.1c72.9,0,145.9,0,218.8,0
		c3.2,0,6.4,0.1,9.6,0.3c1.2,0,2.3,1.3,2.4,2.5c0.1,1.3,0.2,2.5,0.2,3.8c0,14.7,0,29.4,0,44.2c0,1.3-0.1,2.6-0.2,3.8
		c-0.1,1.2-1.2,2.6-2.3,2.6c-3.2,0.2-6.4,0.3-9.6,0.3c-41.3,0-82.5,0-123.8,0c-10.9,0-21.8,0-32.6,0c-1.9,0-3.8,0.1-5.7,0.5
		c-0.8,0.2-1.7,0.9-1.8,2c-0.1,1.3-0.4,2.5-0.4,3.8c0,19.8,0,39.7,0,59.5c0,1.3,0.2,2.5,0.5,3.8c0.1,0.5,0.8,1.1,1.3,1.3
		c0.9,0.3,1.9,0.4,2.8,0.5c2.9,0.1,5.8,0.1,8.6,0.1c45.4,0,90.9,0,136.3,0c3.2,0,6.4,0.1,9.6,0.1c1.5,0,2.9,1.5,3,3.2
		c0.1,1.6,0.2,3.2,0.2,4.8c0,14.1,0,28.2,0,42.2c0,1.9-0.1,3.8-0.5,5.7c-0.2,0.8-1.1,1.5-1.9,1.9c-0.8,0.4-1.9,0.4-2.8,0.5
		c-2.9,0.1-5.8,0.1-8.6,0.1c-45.4,0-90.9,0-136.3,0c-3.2,0-6.4,0.2-9.6,0.3c-1.2,0.1-2.4,1.3-2.5,2.5c-0.1,1.3-0.3,2.5-0.3,3.8
		c0,24,0,48,0,72c0,1.3,0.1,2.6,0.2,3.8c0.1,1.6,1.4,2.9,3.2,2.9c3.2,0.1,6.4,0.1,9.6,0.1c52.5,0,104.9,0,157.4,0c2.9,0,5.8,0,8.6,0
		c4.3,0.1,5.3,0.9,5.3,4.8c0.1,16.3,0,32.6,0,49c0,0.9,0,2-0.4,2.8c-0.4,0.8-1.2,1.7-1.9,1.8c-2.8,0.3-5.7,0.4-8.6,0.4
		c-28.5,0-57,0-85.4,0C1693.8,698.1,1683.9,698.1,1674,698.1z"/>
	<path d="M2122.9,697.9c-0.1-1.2-0.5-2.1-0.2-2.9c0.8-2.8,1.7-5.5,2.6-8.2c17.3-48.5,34.6-97,51.9-145.4
		c19.6-54.8,39.2-109.6,58.8-164.4c1.2-3.3,2-6.7,4-9.7c1-0.3,1.9-0.7,2.8-0.7c24.3,0,48.6-0.1,72.9,0c1.3,0,2.5,0.3,4.1,0.5
		c1.3,3.3,2.6,6.5,3.8,9.8c22.6,64.2,45.3,128.4,67.9,192.7c13.8,39.2,27.6,78.4,41.4,117.6c1,3,2.7,5.8,2.6,9.1
		c0,0.5-0.5,1.4-0.9,1.4c-1.5,0.3-3.1,0.5-4.7,0.5c-14.4,0-28.8,0-43.2,0c-6.4,0-12.8,0-19.2,0c-1.9,0-3.7-0.4-5.8-0.6
		c-1-2.9-1.9-5.6-2.8-8.4c-5.1-16.5-10.1-33-15.2-49.5c-0.8-2.7-1.8-5.5-2.9-8.1c-0.3-0.7-1.3-1.5-2.2-1.7c-1.9-0.3-3.8-0.4-5.7-0.4
		c-10.9,0-21.8,0-32.6,0c-23.4,0-46.7,0-70.1,0c-2.6,0-5.1,0-7.7,0c-4,0.1-4.7,0.5-6.1,4.7c-5.8,16.6-11.4,33.3-17.2,49.9
		c-1.4,3.9-2.7,7.8-4.2,11.7c-0.5,1.2-1.5,2.1-2.9,2.2c-1.3,0.1-2.6,0.2-3.8,0.2c-20.2,0-40.3,0-60.5,0
		C2126.3,698.1,2124.7,698,2122.9,697.9z M2278.7,573.1c11.2,0,22.4,0,33.6,0c1.9,0,3.8-0.3,5.7-0.4c0.7-0.1,1.8-1.5,1.7-2.1
		c-0.4-1.9-0.8-3.8-1.4-5.6c-12.2-38.7-24.3-77.5-36.5-116.2c-0.6-1.8-1.4-3.5-2.2-5.3c-0.1-0.2-0.5-0.3-0.7-0.3
		c-0.3,0-0.7,0.2-0.8,0.4c-0.6,1.1-1.3,2.2-1.7,3.4c-12.7,39.2-25.3,78.5-38,117.8c-0.6,1.8-1,3.7-1.4,5.6c-0.2,0.7,0.7,2.1,1.5,2.2
		c1.9,0.2,3.8,0.5,5.7,0.5C2255.7,573.1,2267.2,573.1,2278.7,573.1z"/>
	<path d="M2018.6,562c0,41.3,0,82.5,0,123.8c0,3.2-0.1,6.4-0.3,9.6c0,1.2-1.3,2.4-2.5,2.5c-1.3,0.1-2.5,0.2-3.8,0.2
		c-18.9,0-37.7,0-56.6,0c-1,0-1.9-0.1-2.9-0.2c-1.2-0.1-2.5-1.2-2.6-2.3c-0.1-1.3-0.3-2.5-0.4-3.8c-0.1-3.2,0-6.4,0-9.6
		c0-81.3,0-162.5,0-243.8c0-3.5,0-7-0.2-10.6c-0.1-2.2-1.5-3.7-3.5-3.8c-2.9-0.1-5.8-0.1-8.6-0.1c-25,0-49.9,0-74.9,0
		c-14.3,0-12.8,1.5-12.9-12.8c-0.1-11.5,0-23,0-34.5c0-2.5,0.2-5.1,0.4-7.6c0.1-1.2,1.4-2.3,2.6-2.4c1-0.1,1.9-0.2,2.9-0.2
		c2.6,0,5.1,0,7.7,0c80.9,0,161.9,0,242.8,0c3.5,0,7,0.1,10.5,0.2c1.2,0,2.3,1.3,2.4,2.5c0.1,1.3,0.2,2.5,0.2,3.8
		c0,14.7,0,29.4,0,44.1c0,1.3-0.1,2.6-0.2,3.8c-0.1,1.6-1.5,2.8-3.2,2.9c-2.9,0.1-5.8,0.1-8.6,0.1c-25.6,0-51.2,0-76.8,0
		c-2.9,0-5.7,0.1-8.6,0.3c-1.2,0.1-2.5,1.3-2.5,2.5c-0.2,3.2-0.3,6.4-0.3,9.6C2018.6,478.2,2018.6,520.1,2018.6,562z"/>
	<path d="M2641.4,532.2c0-51.2,0-102.4,0-153.6c0-3.2,0.1-6.4,0.3-9.6c0-1.2,1.3-2.3,2.5-2.5c0.3,0,0.6-0.1,0.9-0.1
		c20.5,0,40.9,0,61.4,0c0.6,0,1.4,0,1.9,0.3c0.8,0.4,1.7,0.9,1.7,2.1c0.1,3.2,0.3,6.4,0.3,9.6c0,50.9,0,101.7,0,152.6
		c0,31.4,0,62.7,0,94.1c0,3.2,0.1,6.4,0.2,9.6c0,1.6,1.4,2.9,3.1,3c3.2,0.1,6.4,0.3,9.6,0.3c45.7,0,91.5,0,137.2,0
		c3.2,0,6.4,0,9.6,0.1c3.4,0.1,4.7,1.4,4.9,4.5c0.1,1.3,0.1,2.6,0.1,3.8c0,14.7,0,29.4,0,44.1c0,1.9-0.2,3.8-0.5,5.7
		c-0.1,0.5-0.7,1.1-1.2,1.4c-0.5,0.3-1.2,0.4-1.9,0.4c-2.9,0.1-5.8,0.1-8.6,0.1c-69.7,0-139.5,0-209.2,0c-3.2,0-6.4-0.1-9.6-0.3
		c-1.2,0-2.4-1.3-2.4-2.5c-0.1-3.2-0.3-6.4-0.3-9.6C2641.4,634.6,2641.4,583.4,2641.4,532.2z"/>
	<path d="M2564.4,532.3c0,51.2,0,102.3,0,153.5c0,3.2-0.1,6.4-0.2,9.6c0,1.3-1.2,2.5-2.4,2.6c-1,0.1-1.9,0.2-2.9,0.2
		c-19.2,0-38.4,0-57.6,0c-1.3,0-2.6,0-3.8-0.4c-0.7-0.3-1.5-1.2-1.8-1.9c-0.4-0.8-0.3-1.9-0.4-2.8c0-2.9,0-5.8,0-8.6
		c0-101.4,0-202.7,0-304.1c0-15.9-2.1-13.7,13.6-13.8c15-0.1,30.1,0,45.1,0c2.6,0,5.1,0.1,7.7,0.2c1.2,0,2.3,1.3,2.4,2.5
		c0.1,1,0.2,1.9,0.2,2.9c0,2.9,0,5.8,0,8.6C2564.4,431.2,2564.4,481.7,2564.4,532.3z"/>
	<path d="M3002.9,533.3c0,50.5,0,101,0,151.6c0,3.5-0.2,7-0.4,10.5c-0.1,1.2-1.3,2.4-2.4,2.6c-0.6,0.1-1.3,0.2-1.9,0.2
		c-19.8,0-39.6,0-59.5,0c-0.9,0-2,0-2.8-0.4c-0.7-0.4-1.4-1.2-1.8-2c-0.4-0.8-0.4-1.9-0.4-2.8c-0.1-2.9,0-5.8,0-8.6
		c0-101.4,0-202.7,0-304.1c0-1.3,0-2.6,0-3.8c0-10.7-0.3-9.9,9.9-9.9c16.3,0,32.6,0,48.9,0c2.2,0,4.5,0,6.7,0.1
		c2.2,0.1,3.3,1.3,3.5,3.7c0.1,1.3,0.1,2.6,0.2,3.8c0,2.6,0,5.1,0,7.7C3002.9,432.2,3002.9,482.8,3002.9,533.3z"/>
	<path d="M3054.3,733.3c4.1-1.2,7.9-0.8,11.7-0.6c0.9,0.1,2.5,1.6,2.6,2.5c0.2,2.9,0.5,5.7,0.7,8.6c0.5,7.7,1,15.3,1.5,23
		c0.1,1,0.1,1.9,0.4,2.8c0.1,0.4,0.7,0.8,1.2,1c0.2,0.1,0.7-0.1,0.8-0.4c0.8-1.4,1.5-2.8,2.2-4.3c3.8-8.8,7.5-17.6,11.3-26.4
		c0.9-2,1.9-4,2.8-6.1c3.7-1.6,7.5-1.3,11.3-0.5c0.7,0.1,1.4,1.5,1.1,2.3c-0.4,1.2-0.8,2.4-1.3,3.6c-8.3,18.3-16.7,36.6-25.1,54.9
		c-0.7,1.4-1.6,2.7-2.4,4.1c-1.8,0.1-3.4,0.3-4.9,0.3c-7.7,0-7.8,0.4-8.3-7.8c-0.6-9.9-1.4-19.8-2.1-29.6c0-0.2-0.3-0.7-0.5-0.7
		c-0.6,0.1-1.4,0.1-1.6,0.4c-0.7,1-1.3,2.2-1.8,3.3c-3.7,8.8-7.4,17.7-11.2,26.5c-3.7,8.8-2.3,8-12.7,7.8c-0.6,0-1.3-0.2-1.8-0.4
		c-0.5-0.3-1.1-0.7-1.3-1.2c-0.4-1.2-0.8-2.4-0.9-3.7c-1.9-17.8-3.8-35.6-5.7-53.4c-0.1-1.3-0.1-2.5-0.2-3.8c0-1.7,1.2-3,3-3
		c2.6-0.1,5.1-0.1,7.7,0c2,0.1,3.4,1.5,3.6,3.7c0.3,3.2,0.5,6.4,0.7,9.6c0.3,3.5,0.5,7,0.8,10.5c0.4,4.8,0.9,9.5,1.4,14.3
		c0.8-0.2,1.6-0.2,1.9-0.5c0.7-1,1.4-2.2,1.8-3.3c3.6-9.2,7.2-18.4,10.9-27.7C3052.3,737.1,3053.4,735.2,3054.3,733.3z"/>
	<path d="M3704.6,771.4c1.2-2.6,1.7-5.5,2.2-8.3c1.5-8.5,2.9-17,4.4-25.5c0.2-0.9,0.3-1.9,0.8-2.7c0.5-0.8,1.2-1.7,2-1.9
		c2.8-0.8,5.7-0.7,8.5,0c0.6,0.1,1.5,1.5,1.5,2.3c-0.1,1.6-0.2,3.2-0.4,4.8c-3.1,17.6-6.2,35.3-9.3,52.9c-0.2,1.2-0.5,2.5-1.1,3.6
		c-0.4,0.7-1.3,1.3-2.1,1.7c-0.5,0.3-1.3,0.2-1.9,0.2c-9.4,0-8.1,0.8-12-7.7c-4.4-9.6-8.8-19.2-13.3-28.7c-0.7-1.4-1.6-2.7-2.4-4.1
		c-0.1-0.2-0.5-0.4-0.8-0.4c-0.3,0-0.7,0.3-0.8,0.5c-0.5,1.1-1.2,2.3-1.4,3.5c-1.6,8.8-3,17.6-4.5,26.5c-0.1,0.6-0.1,1.3-0.4,1.9
		c-1,2.6-0.1,6.3-2.8,7.8c-2.8,1.5-6.2,0.9-9.4,0.3c-0.5-0.1-1.2-0.9-1.2-1.3c0.3-3.2,0.6-6.4,1.1-9.5c2.6-14.8,5.2-29.6,7.8-44.4
		c0.5-2.8,1.2-5.6,1.9-8.4c0.1-0.5,0.8-1.1,1.4-1.2c3.8-1,7.6-0.8,11.4-0.2c0.8,0.1,1.8,0.9,2.2,1.6c1,1.6,1.8,3.4,2.6,5.1
		c4,9,8,18.1,12.1,27.2c0.6,1.4,1.4,2.9,2.3,4.2C3703.1,771.2,3703.9,771.2,3704.6,771.4z"/>
	<path d="M2871.7,797.8c-1.2-2.2-2.4-4.3-3.5-6.6c-4.7-10.1-9.3-20.3-14-30.4c-0.7-1.4-1.3-2.9-3-3.5c-1.7,2.1-1.9,4.7-2.3,7.1
		c-1.5,8.5-2.9,17-4.4,25.5c-0.4,2.5-1.1,5-1.7,7.4c-3.3,1.6-6.4,1.1-9.6,0.8c-0.9-0.1-1.9-1.1-1.9-1.8c0.1-1.6,0-3.2,0.3-4.8
		c3.3-18.5,6.5-37.1,9.9-55.6c0.4-2.1,1.8-3.2,4.1-3.3c2.2-0.1,4.5,0,6.7-0.1c2.9-0.1,4.8,1,6,3.8c3.1,7.3,6.4,14.6,9.7,21.9
		c1.6,3.5,3.1,7,4.7,10.5c0.5,1.1,1,2.4,2.3,2.9c1.5-0.9,1.9-2.5,2.2-4.1c1.5-8.5,3-17,4.4-25.5c0.5-2.8,0.9-5.7,2.2-8.4
		c2.9-1.7,6.1-1.2,9.2-0.7c0.7,0.1,1.7,1.1,1.8,1.8c0.1,1.9,0,3.8-0.3,5.7c-3.2,18.2-6.4,36.5-9.7,54.7c-0.3,1.9-1.5,3-3.1,3.1
		C2878.4,798.3,2875.2,798.5,2871.7,797.8z"/>
	<path d="M2947.4,794.7c-1.6,0.9-3.3,1.8-4.9,2.6c-6.5,3.3-13.5,3.9-20.6,2.7c-6.3-1.1-10.9-5-14.3-10.4c-3.3-5.4-4.3-11.4-4.2-17.5
		c0.2-8.8,2.6-17,7.4-24.5c9.2-14.3,24.4-20,40.8-16.3c7.2,1.7,12.7,6,15.1,13.3c0.5,1.5,0.5,3.1,0.7,4.7c0.1,1.2-1,2.6-2.1,2.7
		c-3.5,0.4-7,0.5-10.4-0.3c-0.5-0.9-1-1.8-1.5-2.6c-3.8-6.5-9-8.8-16-7.5c-6,1.1-10.7,4.3-14,9.3c-5.1,7.8-6.9,16.4-5.7,25.6
		c0.3,2.6,1.4,4.9,2.9,7c2.4,3.3,5.6,5.2,9.7,5.4c8.6,0.6,14.8-3,19.1-10.2c0.3-0.5,0.4-1.2,0.7-1.8c0.4-1.1-0.5-2.9-1.6-3
		c-2.2-0.2-4.4-0.3-6.7-0.4c-5-0.2-5.1-1.5-4.2-6.1c0.1-0.6,0.3-1.2,0.6-1.8c0.5-1.3,1.4-2.2,2.8-2.2c7.3,0,14.7,0,22,0.1
		c1.1,0,2.2,1.6,2,2.7c-1.7,9.8-3.5,19.5-5.3,29.2c-0.3,1.9-1.4,2.7-3.4,2.7c-1.6,0-3.2-0.1-4.8,0
		C2949.3,798.4,2948.8,796.2,2947.4,794.7z"/>
	<path d="M3612.6,800.6c-2-0.2-4.9-0.2-7.7-0.7c-9.1-1.6-15.4-7.8-17.4-16.9c-1.1-5.1-0.9-10.1-0.1-15.2c0.9-6.4,2.6-12.5,5.7-18.1
		c7.4-13.8,19.1-20,34.6-19.4c1.9,0.1,3.8,0.4,5.7,0.7c9.4,1.6,16,8.3,17.6,17.7c1.2,6.7,0.8,13.4-0.6,20c-0.9,4-2.1,8.1-3.9,11.8
		c-5.8,12.3-15.5,19-29.2,19.9C3616.1,800.4,3614.8,800.5,3612.6,800.6z M3638.3,759.9c-0.2-2.5-0.2-5.1-0.8-7.6
		c-1.2-5.1-4.3-8.7-9.5-9.7c-7.7-1.4-15.5-0.4-21.6,8.8c-5.4,8.3-7,17.7-5.5,27.5c0.8,4.9,4,8.1,8.6,9.2c7.6,1.9,14.6,0.4,20.2-5.4
		c2.5-2.6,4.3-5.6,5.5-8.9C3637.1,769.5,3638.1,764.8,3638.3,759.9z"/>
	<path d="M2461.1,797.4c0-1.6-0.2-2.9,0-4.1c3.2-18.5,6.5-37.1,9.8-55.6c0.2-1.2,0.8-2.4,1.3-3.5c0.2-0.5,0.9-0.9,1.4-1.1
		c0.6-0.3,1.2-0.4,1.8-0.4c8.3,0,16.6,0,24.9,0.1c3.5,0,6.9,0.9,10.1,2.5c6.1,3,9.8,7.9,11.5,14.5c1.5,5.7,1,11.4-0.1,17.1
		c-1.3,6.7-3.9,12.8-8.1,18.2c-6.6,8.5-15.2,13.5-26.2,13.4c-7.7,0-15.3,0-23-0.1C2463.5,798.2,2462.3,797.7,2461.1,797.4z
		 M2483.4,787.4c2.5-0.1,5.1-0.2,7.6-0.5c4.3-0.4,7.9-2.4,10.6-5.8c1.2-1.5,2.3-3.1,3.1-4.8c3.4-7.1,4.8-14.5,4.1-22.3
		c-0.5-5.1-3.9-8.8-9-9.8c-4.7-0.9-9.5-0.9-14.3-0.4c-1.3,0.1-2.3,1.1-2.8,2.3c-0.4,1.2-0.7,2.4-0.9,3.7c-1.8,10-3.6,20.1-5.3,30.1
		c-0.3,1.6-0.3,3.2-0.4,4.7c-0.1,0.7,1,2.1,1.5,2.2C2479.6,787.1,2481.5,787.2,2483.4,787.4z"/>
	<path d="M3251.4,797.8c-4.1,0.8-7.6,0.6-11.1,0.2c-0.7-0.1-1.7-1.4-1.6-2.1c0.7-4.7,1.4-9.5,2.2-14.2c0.2-1.3,0.6-2.5,0.8-3.7
		c1.3-8.7,1.6-9.3-7.7-9.2c-4.8,0.1-9.6,0.1-14.4,0.3c-1.4,0-2.4,0.9-2.8,2.2c-0.6,2.5-1.2,5-1.7,7.5c-0.9,4.7-1.6,9.5-2.4,14.2
		c-0.3,1.5-0.9,3-1.4,4.6c-3.5,1.3-7,0.9-10.5,0.6c-1.4-0.1-2.3-1.2-2.1-2.5c0.6-3.8,1.2-7.6,1.9-11.3c2.4-13.5,4.8-27,7.2-40.6
		c0.4-2.5,1-5,1.5-7.5c0.6-2.8,1.6-3.5,4.7-3.6c8.9-0.2,9.6,0,7.8,8.8c-0.8,4.1-1.5,8.2-2.1,12.3c-0.4,2.1,0.9,3.7,3.2,3.7
		c6.4,0.1,12.8,0,19.2,0c2,0,3.4-1.4,3.8-3.6c0.9-4.7,1.6-9.4,2.5-14.1c0.4-1.9,1-3.7,1.6-5.5c0.2-0.5,0.9-1.1,1.4-1.1
		c2.5-0.2,5.1-0.4,7.6-0.3c2.9,0,4,1.4,3.5,4.2c-3.2,18.2-6.4,36.5-9.6,54.7C3252.7,793.4,3252.1,795.2,3251.4,797.8z"/>
	<path d="M2542.2,733.7c0.8-0.3,1.6-1,2.5-1c2.2-0.2,4.5-0.3,6.7-0.3c10.2,0,20.5,0,30.7,0c1.9,0,3.8,0.3,5.7,0.4
		c0.7,0.1,1.7,1.3,1.6,2.1c-0.2,1.9-0.3,3.8-0.6,5.7c-0.2,1.4-1.8,2.7-3.5,2.8c-1.9,0.1-3.8,0.2-5.7,0.2c-6.1,0-12.1,0-18.2,0
		c-1.9,0-3.8,0.2-5.7,0.3c-1.3,0.1-2.5,1.1-2.7,2.3c-0.5,2.2-1,4.3-1.5,6.5c-0.8,4.2,0,5.2,4.2,5.2c6.4,0.1,12.8,0,19.2,0.1
		c1.9,0,3.8,0.1,5.7,0.2c0.8,0,1.8,1.2,1.8,2c-0.2,2.8-0.4,5.7-1.8,8.6c-1.7,0.2-3.6,0.5-5.5,0.5c-6.1,0.1-12.1,0-18.2,0
		c-1.9,0-3.8,0-5.7,0.2c-1.4,0.1-2.2,1.1-2.7,2.4c-0.3,0.9-0.7,1.8-0.8,2.7c-0.5,3.2-1,6.3-1.4,9.5c-0.2,1.3,0.8,2.4,2.2,2.5
		c2.2,0.1,4.5,0.2,6.7,0.2c6.7,0,13.4,0,20.1,0c1.6,0,3.2,0.1,4.7,0.4c0.5,0.1,1.2,0.7,1.3,1.1c0.6,2.9,0.3,5.7-1.2,8.3
		c-0.3,0.5-0.9,0.9-1.4,1.1c-0.9,0.3-1.9,0.4-2.8,0.4c-13.7,0-27.5,0-41.2,0c-1.2,0-2.4-0.5-3.5-0.8
		C2531.9,788.5,2539.7,743.9,2542.2,733.7z"/>
	<path d="M3469.8,751.1c-0.4-0.8-1-1.6-1.3-2.5c-1.3-4.7-4.7-6.5-9.2-7c-3.2-0.3-6.4,0-9.5,0.9c-2.6,0.8-4.4,2.5-5.6,4.9
		c-1.5,3.1-0.4,6.8,2.6,8.3c2,1,4.1,1.7,6.3,2.3c4.3,1.3,8.6,2.3,12.8,3.8c2.7,0.9,5.3,2.2,7.8,3.6c2.9,1.7,4.4,4.5,4.8,7.9
		c1.1,9.9-2.6,18.3-12.7,23.6c-3.7,1.9-7.6,3.3-11.9,3.3c-4.1,0-8.3,0-12.4-0.3c-2.2-0.2-4.4-0.9-6.5-1.6c-8-2.8-11.2-9.5-10.5-16.3
		c0.2-1.7,1.3-2.9,3.1-3c1.9-0.1,3.8,0,5.7-0.1c2.6-0.1,4,1.1,4.6,3.7c0.9,3.4,3.4,5.2,6.7,6.2c4.8,1.5,9.5,1,14.1-0.7
		c3.4-1.3,5.8-3.8,6.4-7.7c0.5-3.2-0.9-5.9-3.7-7.1c-2.1-0.8-4.2-1.5-6.3-2.1c-2.8-0.8-5.6-1.3-8.3-2.1c-2.4-0.7-4.9-1.5-7.2-2.5
		c-7.4-3.4-10.2-9.2-8.4-17.2c2.3-10.2,9-15.9,18.7-18.3c5.6-1.4,11.4-1.4,17.1-0.2c7.1,1.6,14,6.2,14.7,16.5c0.1,2.1-1.2,3.9-3.2,4
		C3475.6,751.7,3472.7,752,3469.8,751.1z"/>
	<path d="M3502.3,779.6c0.6,1.4,1,2.9,1.7,4.3c1.2,2.4,3.2,3.9,5.7,4.8c5.1,1.7,10.1,1.3,15-0.6c3.1-1.2,5.3-3.5,5.9-7
		c0.7-3.6-0.7-6.5-3.9-7.8c-2.1-0.8-4.2-1.4-6.4-2c-3.1-0.8-6.3-1.4-9.3-2.4c-3-1-6-2.2-8.7-3.8c-4.6-2.7-6.4-7.1-5.9-12.2
		c1-10.3,6-18.1,18.7-21.5c5.9-1.6,12-1.5,18.1-0.2c8.2,1.8,13.4,7.7,14,16c0.1,0.9-0.1,1.9-0.5,2.8c-0.2,0.5-0.8,1.2-1.3,1.3
		c-3.1,0.7-6.3,0.7-9.5,0c-0.5-0.1-0.9-0.8-1.4-1.2c-0.2-0.2-0.3-0.6-0.4-0.9c-1.1-5.3-4.9-7.1-9.8-7.5c-2.9-0.3-5.8,0.1-8.5,0.8
		c-3,0.8-5,2.7-6.2,5.5c-1.2,2.7-0.2,6.1,2.4,7.5c2,1,4.1,1.9,6.2,2.5c4.3,1.3,8.6,2.3,12.9,3.7c2.7,0.9,5.3,2.1,7.9,3.5
		c2.6,1.4,4.3,3.8,4.9,6.8c1.4,7.3-0.1,14-5.2,19.6c-4.5,4.9-10.3,7.5-16.7,8.5c-5.4,0.8-10.8,0.6-16.2-0.2
		c-1.9-0.3-3.7-0.9-5.5-1.6c-7.3-2.9-10.6-8.5-10.1-16.6c0.1-1.2,1.2-2.3,2.5-2.4C3495.8,778.9,3499,778.6,3502.3,779.6z"/>
	<path d="M3395.5,785.3c-8-1.1-15.8-0.7-23.6-0.3c-3.6,3.8-4.6,8.7-7.8,12.6c-3.5,1.1-7.3,0.6-11.1,0.5c-0.9,0-1.8-1.3-1.5-2
		c0.3-0.9,0.6-1.8,1.1-2.7c10-18.8,20.1-37.7,30.1-56.5c0.4-0.8,1-1.6,1.5-2.4c0.7-1.2,1.8-1.9,3.1-1.9c3.8,0,7.6,0,11.4,0.1
		c1.2,0,2.3,1.1,2.6,2.4c1,5.3,2.1,10.6,3,16c2.6,14.7,5.1,29.5,7.7,44.3c0.2,1.3-0.7,2.6-2,2.6c-3.2,0.1-6.4,0.1-9.5,0
		c-1.3,0-2.4-1-2.7-2.3c-0.4-1.9-0.6-3.8-1-5.6C3396.5,788.6,3396,787.1,3395.5,785.3z M3385.9,773.6c1.8-0.1,3.7-0.2,5.6-0.4
		c1.2-0.1,2.3-1.3,2.1-2.6c-0.8-6-1.6-11.9-2.5-17.9c-0.1-0.8-1.1-1.5-1.8-2c-0.2-0.1-1.2,0.5-1.4,1c-3.2,6.2-6.3,12.4-9.3,18.7
		c-0.6,1.2,0.3,2.7,1.5,2.8C3382.1,773.4,3384,773.5,3385.9,773.6z"/>
	<path d="M2652.5,797.9c-1.9,0.1-3.8,0.4-5.7,0.4c-2.2,0-4.4-0.2-6.6-0.4c-0.1-0.9-0.3-1.6-0.1-2.1c0.3-0.9,0.7-1.8,1.2-2.6
		c10.1-18.9,20.2-37.8,30.3-56.7c0.5-0.8,0.9-1.7,1.5-2.5c0.4-0.5,1-0.9,1.6-1c4.4-0.8,8.9-0.9,13.3,0c0.5,0.1,1.1,0.7,1.4,1.2
		c0.5,1.1,1,2.4,1.3,3.6c2.1,12,4.2,23.9,6.3,35.9c1.1,6,2.2,12,3.2,17.9c0.3,1.6,0.4,3.2,0.3,4.7c0,0.5-0.6,1.2-1.1,1.3
		c-3.8,0.9-7.6,0.9-11.3,0c-0.7-0.2-1.5-1.2-1.7-2c-0.5-2.2-0.6-4.4-1-6.6c-0.2-0.9-0.4-1.9-0.9-2.7c-0.3-0.5-0.9-0.8-1.4-1.2
		c-0.3-0.2-0.6-0.2-0.9-0.2c-6.7,0-13.4,0-20.1,0c-1.4,0-2.4,0.9-3.1,2c-1.3,2.2-2.4,4.5-3.7,6.7
		C2654.3,795,2653.4,796.3,2652.5,797.9z M2671.5,773.5c3.3,0,4.9,0,6.4,0c3.2-0.1,4.2-1,3.9-3.9c-0.7-6-1.5-11.9-2.4-17.9
		c-0.1-0.5-0.7-1.1-1.1-1.2c-0.5-0.1-1.4,0.2-1.6,0.5c-3.3,6.5-6.5,13-9.8,19.5c-0.1,0.3-0.3,0.6-0.2,0.9c0.2,0.5,0.4,1.4,0.8,1.5
		C2669.4,773.3,2671.3,773.4,2671.5,773.5z"/>
	<path d="M3307,798.3c-0.7-0.1-2.3-0.1-3.8-0.4c-0.5-0.1-1.2-0.8-1.2-1.3c-0.2-1.2-0.2-2.6,0-3.8c3.3-18.9,6.6-37.7,10-56.6
		c0.4-2.1,1.9-3.6,3.9-3.6c9.6,0,19.2-0.1,28.7,0.1c8.7,0.2,14.6,7.6,14.8,15.8c0.4,12.3-8.3,23.5-20.3,25.2
		c-3.1,0.4-6.4,0.5-9.5,0.7c-2.9,0.2-5.7,0.1-8.6,0.4c-0.8,0.1-1.8,1-2,1.7c-0.8,2.1-1.3,4.3-1.7,6.5c-0.6,3.1-1.2,6.3-1.7,9.4
		C3314.6,798.1,3314.2,798.3,3307,798.3z M3328.8,763.5c0,0.1,0,0.2,0,0.2c3.1-0.3,6.3-0.3,9.4-1c5.3-1.1,8.6-5.2,9.2-10.8
		c0.4-3.5-2.2-7.1-5.6-7.8c-5-1-10.1-0.8-15.2-0.3c-1.3,0.1-2.4,1.1-2.7,2.3c-0.8,3.4-1.3,6.8-2.1,10.2c-1.5,6.4-0.3,7.1,5.9,7.1
		C3328.2,763.5,3328.5,763.5,3328.8,763.5z"/>
	<path d="M2611.5,797.1c0.6-4.1,1.1-7.9,1.8-11.7c2.1-12,4.3-23.9,6.4-35.9c0.2-1.2,0.2-2.5,0.1-3.8c-0.1-0.5-0.6-1.2-1.1-1.4
		c-1.2-0.4-2.5-0.6-3.7-0.6c-3.8-0.2-7.7-0.2-11.5-0.4c-1.1,0-2.2-1.6-2.1-2.8c0.1-2.6,0.8-5,2.1-7.4c1.2-0.2,2.5-0.6,3.7-0.6
		c14.7,0,29.4,0,44.2,0c0.9,0,1.9,0.2,2.8,0.4c0.8,0.1,1.6,1.3,1.5,2.1c-0.1,0.6-0.1,1.3-0.2,1.9c-1.2,6.5-1.4,6.6-8,6.7
		c-2.9,0-5.8,0-8.6,0.1c-3.5,0.1-4.7,1-5.3,4.2c-1.4,7.6-2.7,15.1-4,22.7c-1.4,8.2-2.9,16.4-4.4,24.6c-0.3,1.7-1.6,3-3.2,3
		c-2.6,0.1-5.1,0.1-7.7,0C2613.7,798.1,2613.1,797.7,2611.5,797.1z"/>
	<path d="M3158.9,798.3c-1.8-0.1-3.4-0.2-5-0.3c-0.8-0.1-1.9-1.2-1.8-1.9c0.2-1.9,0.2-3.8,0.5-5.7c2.2-12.2,4.4-24.5,6.6-36.7
		c0.2-0.9,0.3-1.9,0.4-2.8c0.8-6.2,0.9-7.2-6.1-7.2c-3.2,0-6.4-0.1-9.6-0.3c-1.1,0-2.4-1.6-2.2-2.7c0.4-2.2,0.7-4.4,1.3-6.5
		c0.1-0.5,0.8-1,1.3-1.2c0.9-0.3,1.9-0.5,2.8-0.5c15,0,30,0,45,0c0.6,0,1.3,0.2,1.9,0.3c0.7,0.1,1.8,1.3,1.7,2
		c-0.1,1.6-0.1,3.2-0.4,4.7c-0.5,2.7-1.9,4-4.5,4c-3.5,0.1-7,0.1-10.5,0.1c-1,0-1.9,0.1-2.9,0.2c-1.6,0.1-2.9,1.2-3.3,3
		c-0.4,1.5-0.8,3.1-1.1,4.7c-2.1,12.2-4.2,24.5-6.4,36.7c-0.5,2.8-1.2,5.6-1.9,8.4c-0.1,0.5-0.8,1.1-1.4,1.2
		C3161.9,798.1,3160.3,798.2,3158.9,798.3z"/>
	<path d="M2790.2,787.4c0.1,1.2,0.3,2.2,0.1,3.1c-0.4,2.2-1,4.3-1.4,6.1c-1.2,1.5-2.4,1.6-3.7,1.6c-12.8,0-25.5,0-38.3,0
		c-1.2,0-2.4-0.5-3.8-0.8c0.2-2.1,0.1-4.1,0.5-5.9c3.1-17.6,6.2-35.1,9.3-52.7c0.3-1.5,0.8-3.1,1.4-4.5c0.2-0.5,0.8-1.1,1.3-1.2
		c3.4-0.8,6.9-1,10.3,0.2c0.5,0.2,1,1,1,1.4c-0.5,3.8-1,7.6-1.6,11.3c-2.1,11.9-4.3,23.8-6.4,35.8c-0.1,0.6-0.1,1.3-0.2,1.9
		c-0.1,1.1,1,2.7,2,2.8c2.5,0.1,5.1,0.3,7.6,0.3c5.7,0,11.5,0,17.2,0.1C2787.1,786.8,2788.6,787.2,2790.2,787.4z"/>
	<path d="M2738.6,734.2c-0.5,3.6-1.1,7.3-1.7,11.1c-2.6,15.1-5.3,30.1-7.9,45.2c-0.3,1.9-0.9,3.7-1.3,5.6c-0.3,1.2-1.4,2.1-2.8,2.1
		c-2.9,0-5.7,0-8.6-0.2c-0.5,0-1-0.7-1.7-1.1c0-5.1,1.4-10,2.2-15c2.3-13.8,4.8-27.6,7.3-41.4c0.4-2.2,1.1-4.3,1.8-6.4
		c0.2-0.5,0.9-1.1,1.4-1.1c3.4-0.4,6.9-1.1,10.3,0.5C2737.9,733.5,2738.1,733.7,2738.6,734.2z"/>
	<path d="M2809.6,798.3c-1.8-0.1-3.4-0.2-4.9-0.3c-0.8-0.1-1.9-1.1-1.8-1.9c0.1-1.6,0.1-3.2,0.4-4.7c3.1-17.6,6.2-35.1,9.3-52.7
		c0.3-1.5,0.8-3.1,1.4-4.5c0.2-0.5,0.8-1.1,1.3-1.2c3.4-0.8,6.9-1,10.3,0.2c0.5,0.2,0.9,0.9,1,1.4c0.2,0.6,0,1.3-0.1,1.9
		c-3.1,17.9-6.2,35.8-9.3,53.6c-0.4,2.2-1,4.4-1.6,6.5c-0.2,0.5-0.8,1.1-1.4,1.2C2812.6,798.1,2811,798.2,2809.6,798.3z"/>
	<path d="M3129.3,733.8c-0.3,2.6-0.4,5.2-0.8,7.7c-3.1,17.6-6.3,35.2-9.4,52.9c-0.1,0.6-0.1,1.4-0.5,1.8c-0.6,0.7-1.3,1.5-2.1,1.7
		c-3.1,0.6-6.3,0.7-9.5-0.1c-0.5-0.1-1.1-0.9-1.1-1.3c-0.1-1.6-0.1-3.2,0.2-4.8c3.2-18.6,6.5-37.1,9.8-55.7c0.4-2.2,1.7-3.3,4-3.4
		c2.2-0.1,4.5-0.1,6.7,0.1C3127.5,732.7,3128.3,733.3,3129.3,733.8z"/>
	<path d="M3560.7,798.3c-1.3-0.1-2.5-0.2-3.8-0.3c-0.7-0.1-1.8-1.2-1.8-1.9c0.1-1.9,0.1-3.8,0.4-5.7c3.1-17.9,6.3-35.9,9.5-53.8
		c0.1-0.6,0.2-1.4,0.5-1.8c0.6-0.7,1.3-1.6,2.1-1.8c3.1-0.8,6.3-0.8,9.5,0c0.5,0.1,1.1,0.8,1.2,1.3c0.2,0.9,0.1,1.9,0,2.9
		c-0.7,4.7-1.5,9.5-2.3,14.2c-2.5,14.2-5,28.3-7.6,42.5c-0.1,0.6-0.2,1.3-0.4,1.9c-0.3,1.2-1.4,2.3-2.6,2.4
		C3563.9,798.2,3562.3,798.2,3560.7,798.3z"/>
</g>
</svg>
