<svg width="3725.2" height="1051.2" xmlns="http://www.w3.org/2000/svg">

 <g>
  <title>background</title>
  <rect fill="none" id="canvas_background" height="402" width="582" y="-1" x="-1"/>
 </g>
 <g>
  <title>Layer 1</title>
  <path stroke="null" id="svg_2" d="m616.5,1042.9c-0.2,-1.1 -0.6,-2.4 -0.6,-3.6c0,-17.3 0,-34.6 0,-51.8c0,-0.9 0.2,-1.9 0.5,-2.8c0.2,-0.5 0.7,-1.2 1.2,-1.3c2.8,-0.8 5.5,-1.5 8.3,-2.2c77.5,-17 146.1,-51.8 206,-103.7c1.9,-1.7 3.9,-3.3 5.7,-5.1c0.6,-0.6 0.9,-1.6 1.4,-2.4c-0.6,-0.9 -1,-1.8 -1.7,-2.4c-1.7,-1.9 -3.6,-3.7 -5.4,-5.5c-88.5,-88.8 -177.2,-177.5 -265.9,-266.2c-2.5,-2.5 -5.1,-4.8 -7.7,-7.2c-0.2,-0.2 -0.7,-0.3 -0.8,-0.2c-0.5,0.3 -1.1,0.7 -1.3,1.2c-0.3,0.9 -0.3,1.9 -0.3,2.8c0,3.2 0,6.4 0,9.6c0,140.8 0,281.6 0,422.4c0,7.7 -0.2,15.4 -0.3,23c0,1.6 -1.5,3 -3,3.2c-1.3,0.2 -2.5,0.4 -3.8,0.4c-15.4,0 -30.7,0 -46.1,-0.1c-1.3,0 -2.6,-0.2 -3.8,-0.5c-0.9,-0.3 -1.8,-0.8 -1.9,-1.9c-0.2,-1.3 -0.4,-2.5 -0.4,-3.8c-0.1,-7.7 -0.2,-15.4 -0.2,-23c0,-261.1 0,-522.2 0,-783.3c0,-3.5 -0.2,-7 -0.3,-10.5c0,-0.2 -0.4,-0.4 -0.6,-0.5c-0.3,0 -0.7,0 -0.9,0.2c-1.3,1.1 -1.6,2.7 -2,4.3c-6.2,20.2 -12.5,40.3 -18.7,60.5c-37.6,121.9 -75.2,243.8 -112.9,365.7c-9.8,31.8 -19.6,63.5 -29.4,95.3c-0.8,2.7 -1.7,5.4 -2.8,8c-1.9,-0.9 -2.3,-2.5 -2.8,-4c-2.5,-8.2 -5.1,-16.5 -7.6,-24.7c-10.2,-33 -20.4,-66 -30.6,-99c-28.9,-93.5 -57.8,-186.9 -86.6,-280.4c-11.5,-37.3 -23,-74.5 -34.5,-111.8c-0.7,-2.4 -1.7,-4.8 -2.6,-7.4c-1.1,0.5 -2.2,0.6 -2.7,1.3c-1.5,1.6 -2.9,3.4 -4.3,5.2c-43.1,56.2 -72.4,118.8 -87.1,188.2c-3.6,16.9 -6.1,34 -7.9,51.2c-2.7,27.1 -2.9,54.3 -0.9,81.5c2.8,39.3 10.8,77.8 23.6,115.2c46.8,137 156.2,245.2 292.2,290.8c16.1,5.4 32.3,10.1 48.9,13.5c2.5,0.5 5,1.2 7.5,1.8c1.1,0.3 2.2,1.6 2.3,2.8c0.1,0.6 0.2,1.3 0.2,1.9c0,17.3 0,34.6 0,51.8c0,0.9 -0.2,1.9 -0.6,2.8c-0.2,0.5 -0.9,1 -1.4,1.1c-0.9,0.1 -1.9,0 -2.8,-0.2c-190.7,-34.9 -341.4,-170.9 -401.6,-343.5c-10.2,-29.4 -17.8,-59.4 -22.8,-90.1c-4.6,-29.2 -6.9,-58.5 -6.7,-87.9c0.1,-16.3 1.1,-32.6 2.7,-48.9c2.6,-26.2 7.1,-51.9 13.6,-77.4c18.5,-72.3 51.1,-137.7 97.4,-196.2c20.5,-25.9 43.3,-49.7 68.3,-71.3c2.6,-2.3 5.1,-4.8 8.1,-6.5c1.5,0.5 2.2,1.5 2.6,2.7c2.6,8.2 5.1,16.5 7.7,24.7c41.2,133.5 82.3,267 123.5,400.5c0.9,3 1.2,6.3 3.4,8.9c0.2,0.2 0.5,0.4 0.8,0.4c0.2,0 0.6,0 0.7,-0.2c0.9,-2.4 1.9,-4.7 2.7,-7.1c7.7,-24.7 15.3,-49.5 23,-74.2c39.3,-127.4 78.6,-254.8 117.9,-382.2c8.7,-28.1 17.4,-56.2 26.1,-84.3c0.9,-2.7 1.7,-5.5 2.8,-8.1c0.5,-1.2 1.5,-2 2.9,-2.2c1,-0.1 1.9,-0.3 2.9,-0.3c13.4,0 26.9,0 40.3,0.1c1.3,0 2.6,0.1 3.8,0.3c2.8,0.3 4.1,1.5 4.3,4.1c0.1,1.9 0.2,3.8 0.3,5.8c0,3.2 0,6.4 0,9.6c0,139.8 0,279.7 0,419.5c0,3.5 0.2,7 0.4,10.5c0,0.4 0.8,0.8 1.3,1.2c0.2,0.1 0.6,0 0.9,-0.2c0.8,-0.5 1.6,-1.1 2.3,-1.7c1.8,-1.8 3.6,-3.6 5.5,-5.4c86.2,-86.2 172.4,-172.4 258.6,-258.6c2.5,-2.5 4.9,-5 7.3,-7.6c0.9,-0.9 0.8,-2.6 -0.1,-3.5c-2.4,-2.1 -4.7,-4.3 -7.2,-6.3c-56.3,-46.8 -120,-78.9 -191.2,-95.8c-5.6,-1.3 -11.3,-2 -16.9,-4.3c-0.2,-1.2 -0.6,-2.5 -0.6,-3.7c0,-17.3 0,-34.6 0,-51.8c0,-0.9 0.2,-1.9 0.5,-2.8c0.2,-0.5 0.9,-1.1 1.3,-1.1c3.5,0.4 7,0.7 10.4,1.4c49.8,10 97.3,26.7 142.3,50.3c126.8,66.8 220.9,182.1 260.9,319.9c6.4,22.1 11.1,44.6 14.6,67.4c5.7,36.9 7.3,73.9 4.8,111c-7.3,110.5 -45.2,209.5 -114.4,296c-62.6,78.2 -141.3,133.8 -235.5,167.5c-26.2,9.4 -53.1,16.4 -80.5,21.4c-0.9,0.2 -1.9,0.1 -2.8,0.1c-0.4,0 -0.7,-0.2 -1.2,-0.3zm264.7,-216.9c2.9,-0.7 4,-3.1 5.6,-5c29.6,-36.1 53.3,-75.8 70.9,-119c13.8,-33.9 23.5,-68.9 29,-105.1c2.5,-16.8 4.4,-33.6 5,-50.6c0.7,-19.8 0.6,-39.6 -1.2,-59.4c-1.9,-21.4 -5,-42.5 -9.7,-63.5c-16.5,-73.4 -49.1,-138.9 -97.2,-196.7c-1.2,-1.5 -2.5,-2.9 -3.7,-4.4c-3.5,-3.9 -4,-4 -7.5,-0.6c-1.4,1.3 -2.7,2.7 -4.1,4.1c-4.3,4.3 -8.6,8.6 -12.9,12.9c-90.4,90.4 -180.8,180.8 -271.3,271.3c-1.8,1.8 -3.6,3.6 -5.4,5.4c-4.3,4.4 -4.3,4.4 0.3,9.1c1.8,1.8 3.6,3.6 5.4,5.4c96.3,96.3 192.7,192.7 289,289c1.8,1.8 3.6,3.6 5.5,5.4c0.7,0.7 1.6,1.2 2.3,1.7z"/>
 </g>
</svg>